<svg width="96" height="24" viewBox="0 0 96 24" fill="none" xmlns="http://www.w3.org/2000/svg">
<g clip-path="url(#clip0_366_631)">
<path d="M8.00043 17C6.75339 17.0008 5.55105 16.5356 4.62931 15.6957C3.70758 14.8557 3.13299 13.7017 3.01828 12.4599C2.90357 11.2182 3.25703 9.97837 4.00929 8.98379C4.76156 7.9892 5.85834 7.31163 7.08443 7.084C7.29979 5.93767 7.90898 4.90264 8.80665 4.1579C9.70433 3.41317 10.834 3.00555 12.0004 3.00555C13.1668 3.00555 14.2965 3.41317 15.1942 4.1579C16.0919 4.90264 16.7011 5.93767 16.9164 7.084C18.1384 7.31625 19.23 7.99547 19.9783 8.98912C20.7265 9.98277 21.0777 11.2196 20.9633 12.4581C20.8488 13.6967 20.277 14.8483 19.3594 15.688C18.4419 16.5278 17.2443 16.9955 16.0004 17M9.00043 12L12.0004 9M12.0004 9L15.0004 12M12.0004 9V21" stroke="#9CA7AD" stroke-width="2" stroke-linecap="round" stroke-linejoin="round"/>
<path d="M28 3.99999V8.99999H28.582M28.582 8.99999C29.2458 7.35812 30.4357 5.9829 31.965 5.08985C33.4944 4.1968 35.2768 3.8364 37.033 4.06513C38.7891 4.29386 40.4198 5.09878 41.6694 6.35377C42.919 7.60875 43.7168 9.24285 43.938 11M28.582 8.99999H33M44 20V15H43.419M43.419 15C42.7542 16.6409 41.564 18.015 40.0348 18.9073C38.5056 19.7995 36.7237 20.1595 34.9681 19.9309C33.2125 19.7022 31.5822 18.8979 30.3325 17.6437C29.0829 16.3896 28.2844 14.7564 28.062 13M43.419 15H39" stroke="#7E5C9B" stroke-width="2" stroke-linecap="round" stroke-linejoin="round"/>
<path d="M57 12L59 14L63 10M69 12C69 13.1819 68.7672 14.3522 68.3149 15.4442C67.8626 16.5361 67.1997 17.5282 66.364 18.364C65.5282 19.1997 64.5361 19.8626 63.4442 20.3149C62.3522 20.7672 61.1819 21 60 21C58.8181 21 57.6478 20.7672 56.5558 20.3149C55.4639 19.8626 54.4718 19.1997 53.636 18.364C52.8003 17.5282 52.1374 16.5361 51.6851 15.4442C51.2328 14.3522 51 13.1819 51 12C51 9.61305 51.9482 7.32387 53.636 5.63604C55.3239 3.94821 57.6131 3 60 3C62.3869 3 64.6761 3.94821 66.364 5.63604C68.0518 7.32387 69 9.61305 69 12Z" stroke="#38AB3D" stroke-width="2" stroke-linecap="round" stroke-linejoin="round"/>
<path d="M84 8V12M84 16H84.01M93 12C93 13.1819 92.7672 14.3522 92.3149 15.4442C91.8626 16.5361 91.1997 17.5282 90.364 18.364C89.5282 19.1997 88.5361 19.8626 87.4442 20.3149C86.3522 20.7672 85.1819 21 84 21C82.8181 21 81.6478 20.7672 80.5558 20.3149C79.4639 19.8626 78.4718 19.1997 77.636 18.364C76.8003 17.5282 76.1374 16.5361 75.6851 15.4442C75.2328 14.3522 75 13.1819 75 12C75 9.61305 75.9482 7.32387 77.636 5.63604C79.3239 3.94821 81.6131 3 84 3C86.3869 3 88.6761 3.94821 90.364 5.63604C92.0518 7.32387 93 9.61305 93 12Z" stroke="#D64545" stroke-width="2" stroke-linecap="round" stroke-linejoin="round"/>
</g>
<defs>
<clipPath id="clip0_366_631">
<rect width="96" height="24" fill="white"/>
</clipPath>
</defs>
</svg>
