<svg width="240" height="48" viewBox="0 0 240 48" fill="none" xmlns="http://www.w3.org/2000/svg">
<g clip-path="url(#clip0_294_487)">
<path d="M8 8C8 5.79086 9.79086 4 12 4H32L40 12V40C40 42.2091 38.2091 44 36 44H12C9.79086 44 8 42.2091 8 40V8Z" fill="#E3E3E3"/>
<rect x="4" y="18" width="40" height="19" rx="2" fill="#FF0000"/>
<path d="M8.756 32V22.396H13.39C13.9127 22.396 14.3887 22.5267 14.818 22.788C15.2473 23.04 15.5927 23.3807 15.854 23.81C16.1153 24.2393 16.246 24.7153 16.246 25.238V25.476C16.246 25.9987 16.1153 26.484 15.854 26.932C15.5927 27.3707 15.2473 27.7207 14.818 27.982C14.3887 28.234 13.9127 28.36 13.39 28.36H11.038V32H8.756ZM11.038 26.582H12.732C12.956 26.582 13.152 26.5307 13.32 26.428C13.4973 26.3253 13.6327 26.1853 13.726 26.008C13.8287 25.8213 13.88 25.6067 13.88 25.364C13.88 25.1493 13.8333 24.9533 13.74 24.776C13.6467 24.5893 13.516 24.44 13.348 24.328C13.18 24.216 12.9747 24.16 12.732 24.16H11.038V26.582ZM17.1505 32V22.396H20.8185C21.3692 22.396 21.8779 22.4707 22.3445 22.62C22.8205 22.7693 23.2312 22.9933 23.5765 23.292C23.9219 23.5907 24.1925 23.964 24.3885 24.412C24.5845 24.8507 24.6825 25.3593 24.6825 25.938V28.458C24.6825 29.0273 24.5845 29.536 24.3885 29.984C24.1925 30.4227 23.9219 30.7913 23.5765 31.09C23.2312 31.3887 22.8205 31.6173 22.3445 31.776C21.8779 31.9253 21.3692 32 20.8185 32H17.1505ZM19.5025 30.208H20.6225C20.9679 30.208 21.2665 30.1567 21.5185 30.054C21.7705 29.9513 21.9619 29.7833 22.0925 29.55C22.2325 29.3167 22.3025 28.9947 22.3025 28.584V25.798C22.3025 25.3873 22.2325 25.0653 22.0925 24.832C21.9619 24.5893 21.7705 24.4167 21.5185 24.314C21.2665 24.2113 20.9679 24.16 20.6225 24.16H19.5025V30.208ZM25.7831 32V22.396H32.2791L32.0411 24.23H28.0651V26.386H31.6631V28.136H28.0651V32H25.7831Z" fill="white"/>
<path d="M32 4L40 12L36.3981 12.8004C33.7385 13.3914 31.2791 11.2086 31.5502 8.49766L32 4Z" fill="#C6C6C6"/>
<path d="M32 4L40 12H36C33.7909 12 32 10.2091 32 8V4Z" fill="#F3F3F3"/>
<path d="M4 20C4 18.8954 4.89543 18 6 18H42C43.1046 18 44 18.8954 44 20H4Z" fill="white" fill-opacity="0.4"/>
<path d="M4 35C4 36.1046 4.89543 37 6 37H42C43.1046 37 44 36.1046 44 35H4Z" fill="black" fill-opacity="0.15"/>
<path d="M56 8C56 5.79086 57.7909 4 60 4H80L88 12V40C88 42.2091 86.2091 44 84 44H60C57.7909 44 56 42.2091 56 40V8Z" fill="#E3E3E3"/>
<rect x="52" y="18" width="40" height="19" rx="2" fill="#3266BA"/>
<path d="M55.756 32V22.396H59.424C59.9747 22.396 60.4833 22.4707 60.95 22.62C61.426 22.7693 61.8367 22.9933 62.182 23.292C62.5273 23.5907 62.798 23.964 62.994 24.412C63.19 24.8507 63.288 25.3593 63.288 25.938V28.458C63.288 29.0273 63.19 29.536 62.994 29.984C62.798 30.4227 62.5273 30.7913 62.182 31.09C61.8367 31.3887 61.426 31.6173 60.95 31.776C60.4833 31.9253 59.9747 32 59.424 32H55.756ZM58.108 30.208H59.228C59.5733 30.208 59.872 30.1567 60.124 30.054C60.376 29.9513 60.5673 29.7833 60.698 29.55C60.838 29.3167 60.908 28.9947 60.908 28.584V25.798C60.908 25.3873 60.838 25.0653 60.698 24.832C60.5673 24.5893 60.376 24.4167 60.124 24.314C59.872 24.2113 59.5733 24.16 59.228 24.16H58.108V30.208ZM67.4125 32.14C66.8619 32.14 66.3532 32.056 65.8865 31.888C65.4292 31.7107 65.0279 31.454 64.6825 31.118C64.3465 30.7727 64.0852 30.348 63.8985 29.844C63.7212 29.3307 63.6325 28.738 63.6325 28.066V26.344C63.6325 25.6627 63.7259 25.07 63.9125 24.566C64.0992 24.0527 64.3605 23.6233 64.6965 23.278C65.0325 22.9327 65.4292 22.676 65.8865 22.508C66.3532 22.34 66.8619 22.256 67.4125 22.256H67.7905C68.3412 22.256 68.8452 22.3447 69.3025 22.522C69.7692 22.69 70.1705 22.9467 70.5065 23.292C70.8425 23.628 71.1039 24.0527 71.2905 24.566C71.4772 25.07 71.5705 25.6627 71.5705 26.344V28.066C71.5705 28.738 71.4772 29.3307 71.2905 29.844C71.1039 30.348 70.8425 30.7727 70.5065 31.118C70.1705 31.454 69.7739 31.7107 69.3165 31.888C68.8592 32.056 68.3505 32.14 67.7905 32.14H67.4125ZM67.5945 30.362C67.8279 30.362 68.0379 30.3293 68.2245 30.264C68.4205 30.1987 68.5885 30.0913 68.7285 29.942C68.8779 29.7927 68.9899 29.6013 69.0645 29.368C69.1485 29.1253 69.1905 28.8313 69.1905 28.486V25.882C69.1905 25.5367 69.1485 25.2473 69.0645 25.014C68.9899 24.7807 68.8779 24.5893 68.7285 24.44C68.5885 24.2907 68.4205 24.1833 68.2245 24.118C68.0379 24.0527 67.8279 24.02 67.5945 24.02C67.3705 24.02 67.1605 24.0527 66.9645 24.118C66.7779 24.1833 66.6145 24.2907 66.4745 24.44C66.3345 24.5893 66.2225 24.7807 66.1385 25.014C66.0639 25.2473 66.0265 25.5367 66.0265 25.882V28.486C66.0265 28.8313 66.0639 29.1253 66.1385 29.368C66.2225 29.6013 66.3345 29.7927 66.4745 29.942C66.6145 30.0913 66.7779 30.1987 66.9645 30.264C67.1605 30.3293 67.3705 30.362 67.5945 30.362ZM75.8071 32.14C75.2564 32.14 74.7477 32.056 74.2811 31.888C73.8237 31.7107 73.4224 31.454 73.0771 31.118C72.7411 30.7727 72.4797 30.348 72.2931 29.844C72.1157 29.3307 72.0271 28.738 72.0271 28.066V26.344C72.0271 25.6627 72.1204 25.07 72.3071 24.566C72.4937 24.0527 72.7551 23.6233 73.0911 23.278C73.4271 22.9327 73.8237 22.676 74.2811 22.508C74.7477 22.34 75.2564 22.256 75.8071 22.256H76.1851C76.8851 22.256 77.4964 22.4007 78.0191 22.69C78.5417 22.9793 78.9477 23.418 79.2371 24.006C79.5357 24.594 79.6851 25.3313 79.6851 26.218H77.4871C77.4871 25.714 77.4451 25.3033 77.3611 24.986C77.2864 24.6593 77.1371 24.4167 76.9131 24.258C76.6984 24.0993 76.3764 24.02 75.9471 24.02C75.7324 24.02 75.5317 24.0527 75.3451 24.118C75.1584 24.1833 74.9951 24.2907 74.8551 24.44C74.7244 24.5893 74.6171 24.7807 74.5331 25.014C74.4584 25.2473 74.4211 25.5367 74.4211 25.882V28.486C74.4211 28.8313 74.4584 29.1253 74.5331 29.368C74.6171 29.6013 74.7244 29.7927 74.8551 29.942C74.9951 30.0913 75.1584 30.1987 75.3451 30.264C75.5317 30.3293 75.7324 30.362 75.9471 30.362C76.5817 30.362 77.0111 30.1893 77.2351 29.844C77.4684 29.4987 77.5851 28.948 77.5851 28.192H79.6851C79.6851 29.0227 79.5357 29.732 79.2371 30.32C78.9477 30.908 78.5417 31.3607 78.0191 31.678C77.4964 31.986 76.8851 32.14 76.1851 32.14H75.8071ZM80.2396 32L82.8856 26.932L80.5476 22.396H83.1236L84.5796 25.266H84.6216L85.9376 22.396H88.2476L85.9096 26.946L88.5416 32H85.9516L84.2156 28.612H84.1596L82.6616 32H80.2396Z" fill="white"/>
<path d="M80 4L88 12L84.3981 12.8004C81.7385 13.3914 79.2791 11.2086 79.5502 8.49766L80 4Z" fill="#C6C6C6"/>
<path d="M80 4L88 12H84C81.7909 12 80 10.2091 80 8V4Z" fill="#F3F3F3"/>
<path d="M52 20C52 18.8954 52.8954 18 54 18H90C91.1046 18 92 18.8954 92 20H52Z" fill="white" fill-opacity="0.4"/>
<path d="M52 35C52 36.1046 52.8954 37 54 37H90C91.1046 37 92 36.1046 92 35H52Z" fill="black" fill-opacity="0.15"/>
<path d="M104 8C104 5.79086 105.791 4 108 4H128L136 12V40C136 42.2091 134.209 44 132 44H108C105.791 44 104 42.2091 104 40V8Z" fill="#E3E3E3"/>
<rect x="100" y="18" width="40" height="19" rx="2" fill="#2CA328"/>
<path d="M103.056 32L105.702 26.932L103.364 22.396H105.94L107.396 25.266H107.438L108.754 22.396H111.064L108.726 26.946L111.358 32H108.768L107.032 28.612H106.976L105.478 32H103.056ZM112.571 32V22.396H114.909V30.11H118.773L119.011 32H112.571ZM123.947 32.14C123.434 32.14 122.944 32.084 122.477 31.972C122.02 31.8507 121.609 31.6733 121.245 31.44C120.881 31.1973 120.592 30.8893 120.377 30.516C120.172 30.1333 120.069 29.676 120.069 29.144C120.069 29.0973 120.069 29.0507 120.069 29.004C120.069 28.948 120.074 28.892 120.083 28.836H122.239C122.23 28.8733 122.225 28.9107 122.225 28.948C122.225 28.976 122.225 29.0133 122.225 29.06C122.225 29.312 122.286 29.536 122.407 29.732C122.528 29.9187 122.715 30.0633 122.967 30.166C123.228 30.2687 123.55 30.32 123.933 30.32C124.316 30.32 124.624 30.2873 124.857 30.222C125.09 30.1473 125.258 30.0353 125.361 29.886C125.473 29.7273 125.529 29.536 125.529 29.312C125.529 29.06 125.431 28.8593 125.235 28.71C125.048 28.5607 124.801 28.4393 124.493 28.346C124.185 28.2433 123.844 28.15 123.471 28.066C123.098 27.982 122.724 27.8793 122.351 27.758C121.978 27.6273 121.632 27.4593 121.315 27.254C121.007 27.0393 120.755 26.7593 120.559 26.414C120.372 26.0687 120.279 25.6347 120.279 25.112C120.279 24.468 120.452 23.936 120.797 23.516C121.142 23.096 121.6 22.7833 122.169 22.578C122.748 22.3633 123.378 22.256 124.059 22.256C124.731 22.256 125.342 22.354 125.893 22.55C126.444 22.746 126.882 23.054 127.209 23.474C127.545 23.8847 127.713 24.4167 127.713 25.07V25.252H125.571V25.126C125.571 24.8927 125.515 24.692 125.403 24.524C125.291 24.3467 125.123 24.2113 124.899 24.118C124.675 24.0247 124.395 23.978 124.059 23.978C123.77 23.978 123.518 24.0107 123.303 24.076C123.088 24.1413 122.92 24.2393 122.799 24.37C122.687 24.5007 122.631 24.6687 122.631 24.874C122.631 25.1353 122.724 25.3407 122.911 25.49C123.107 25.6393 123.359 25.7607 123.667 25.854C123.975 25.938 124.316 26.022 124.689 26.106C125.072 26.19 125.45 26.2927 125.823 26.414C126.196 26.526 126.537 26.6847 126.845 26.89C127.162 27.0953 127.419 27.366 127.615 27.702C127.811 28.0287 127.914 28.444 127.923 28.948C127.923 29.7133 127.75 30.3293 127.405 30.796C127.069 31.2627 126.602 31.6033 126.005 31.818C125.408 32.0327 124.722 32.14 123.947 32.14ZM128.24 32L130.886 26.932L128.548 22.396H131.124L132.58 25.266H132.622L133.938 22.396H136.248L133.91 26.946L136.542 32H133.952L132.216 28.612H132.16L130.662 32H128.24Z" fill="white"/>
<path d="M128 4L136 12L132.398 12.8004C129.738 13.3914 127.279 11.2086 127.55 8.49766L128 4Z" fill="#C6C6C6"/>
<path d="M128 4L136 12H132C129.791 12 128 10.2091 128 8V4Z" fill="#F3F3F3"/>
<path d="M100 20C100 18.8954 100.895 18 102 18H138C139.105 18 140 18.8954 140 20H100Z" fill="white" fill-opacity="0.4"/>
<path d="M100 35C100 36.1046 100.895 37 102 37H138C139.105 37 140 36.1046 140 35H100Z" fill="black" fill-opacity="0.15"/>
<path d="M152 8C152 5.79086 153.791 4 156 4H176L184 12V40C184 42.2091 182.209 44 180 44H156C153.791 44 152 42.2091 152 40V8Z" fill="#E3E3E3"/>
<rect x="148" y="18" width="40" height="19" rx="2" fill="#DF1212"/>
<path d="M151.756 32V22.396H156.39C156.913 22.396 157.389 22.5267 157.818 22.788C158.247 23.04 158.593 23.3807 158.854 23.81C159.115 24.2393 159.246 24.7153 159.246 25.238V25.476C159.246 25.9987 159.115 26.484 158.854 26.932C158.593 27.3707 158.247 27.7207 157.818 27.982C157.389 28.234 156.913 28.36 156.39 28.36H154.038V32H151.756ZM154.038 26.582H155.732C155.956 26.582 156.152 26.5307 156.32 26.428C156.497 26.3253 156.633 26.1853 156.726 26.008C156.829 25.8213 156.88 25.6067 156.88 25.364C156.88 25.1493 156.833 24.9533 156.74 24.776C156.647 24.5893 156.516 24.44 156.348 24.328C156.18 24.216 155.975 24.16 155.732 24.16H154.038V26.582ZM160.151 32V22.396H164.785C165.307 22.396 165.783 22.5267 166.213 22.788C166.642 23.04 166.987 23.3807 167.249 23.81C167.51 24.2393 167.641 24.7153 167.641 25.238V25.476C167.641 25.9987 167.51 26.484 167.249 26.932C166.987 27.3707 166.642 27.7207 166.213 27.982C165.783 28.234 165.307 28.36 164.785 28.36H162.433V32H160.151ZM162.433 26.582H164.127C164.351 26.582 164.547 26.5307 164.715 26.428C164.892 26.3253 165.027 26.1853 165.121 26.008C165.223 25.8213 165.275 25.6067 165.275 25.364C165.275 25.1493 165.228 24.9533 165.135 24.776C165.041 24.5893 164.911 24.44 164.743 24.328C164.575 24.216 164.369 24.16 164.127 24.16H162.433V26.582ZM170.841 32V24.244H168.181V22.396H175.811V24.244H173.151V32H170.841ZM176.24 32L178.886 26.932L176.548 22.396H179.124L180.58 25.266H180.622L181.938 22.396H184.248L181.91 26.946L184.542 32H181.952L180.216 28.612H180.16L178.662 32H176.24Z" fill="white"/>
<path d="M176 4L184 12L180.398 12.8004C177.738 13.3914 175.279 11.2086 175.55 8.49766L176 4Z" fill="#C6C6C6"/>
<path d="M176 4L184 12H180C177.791 12 176 10.2091 176 8V4Z" fill="#F3F3F3"/>
<path d="M148 20C148 18.8954 148.895 18 150 18H186C187.105 18 188 18.8954 188 20H148Z" fill="white" fill-opacity="0.4"/>
<path d="M148 35C148 36.1046 148.895 37 150 37H186C187.105 37 188 36.1046 188 35H148Z" fill="black" fill-opacity="0.15"/>
<path d="M200 8C200 5.79086 201.791 4 204 4H224L232 12V40C232 42.2091 230.209 44 228 44H204C201.791 44 200 42.2091 200 40V8Z" fill="#E3E3E3"/>
<rect x="196" y="18" width="40" height="19" rx="2" fill="#43AAEA"/>
<path d="M200.994 32V22.396H207.658L207.406 24.174H203.29V26.218H207.14V27.954H203.29V30.152H207.448L207.686 32H200.994ZM208.913 32V22.396H211.727L212.567 28.528H212.623L213.477 22.396H216.291V32H214.261V25.112H214.205L213.253 32H211.699L210.775 25.112H210.705V32H208.913ZM217.965 32V22.396H220.303V30.11H224.167L224.405 32H217.965Z" fill="white"/>
<path d="M224 4L232 12L228.398 12.8004C225.738 13.3914 223.279 11.2086 223.55 8.49766L224 4Z" fill="#C6C6C6"/>
<path d="M224 4L232 12H228C225.791 12 224 10.2091 224 8V4Z" fill="#F3F3F3"/>
<path d="M196 20C196 18.8954 196.895 18 198 18H234C235.105 18 236 18.8954 236 20H196Z" fill="white" fill-opacity="0.4"/>
<path d="M196 35C196 36.1046 196.895 37 198 37H234C235.105 37 236 36.1046 236 35H196Z" fill="black" fill-opacity="0.15"/>
</g>
<defs>
<clipPath id="clip0_294_487">
<rect width="240" height="48" fill="white"/>
</clipPath>
</defs>
</svg>
