<svg width="96" height="24" viewBox="0 0 96 24" fill="none" xmlns="http://www.w3.org/2000/svg">
<g clip-path="url(#clip0_296_535)">
<path d="M8.00043 16C6.75339 16.0008 5.55105 15.5356 4.62931 14.6957C3.70758 13.8557 3.13299 12.7017 3.01828 11.4599C2.90357 10.2182 3.25703 8.97837 4.00929 7.98379C4.76156 6.9892 5.85834 6.31163 7.08443 6.084C7.29979 4.93767 7.90898 3.90264 8.80665 3.1579C9.70433 2.41317 10.834 2.00555 12.0004 2.00555C13.1668 2.00555 14.2965 2.41317 15.1942 3.1579C16.0919 3.90264 16.7011 4.93767 16.9164 6.084C18.1384 6.31625 19.23 6.99547 19.9783 7.98912C20.7265 8.98277 21.0777 10.2196 20.9633 11.4581C20.8488 12.6967 20.277 13.8483 19.3594 14.688C18.4419 15.5278 17.2443 15.9955 16.0004 16M9.00043 19L12.0004 22M12.0004 22L15.0004 19M12.0004 22V10" stroke="#9CA7AD" stroke-width="2" stroke-linecap="round" stroke-linejoin="round"/>
<path d="M37 16H36V12H35M36 8H36.01M45 12C45 13.1819 44.7672 14.3522 44.3149 15.4442C43.8626 16.5361 43.1997 17.5282 42.364 18.364C41.5282 19.1997 40.5361 19.8626 39.4442 20.3149C38.3522 20.7672 37.1819 21 36 21C34.8181 21 33.6478 20.7672 32.5558 20.3149C31.4639 19.8626 30.4718 19.1997 29.636 18.364C28.8003 17.5282 28.1374 16.5361 27.6851 15.4442C27.2328 14.3522 27 13.1819 27 12C27 9.61305 27.9482 7.32387 29.636 5.63604C31.3239 3.94821 33.6131 3 36 3C38.3869 3 40.6761 3.94821 42.364 5.63604C44.0518 7.32387 45 9.61305 45 12Z" stroke="#9CA7AD" stroke-width="2" stroke-linecap="round" stroke-linejoin="round"/>
<path d="M59 4.99998H54C53.4696 4.99998 52.9609 5.21069 52.5858 5.58577C52.2107 5.96084 52 6.46955 52 6.99998V18C52 18.5304 52.2107 19.0391 52.5858 19.4142C52.9609 19.7893 53.4696 20 54 20H65C65.5304 20 66.0391 19.7893 66.4142 19.4142C66.7893 19.0391 67 18.5304 67 18V13M65.586 3.58598C65.7705 3.39496 65.9912 3.24259 66.2352 3.13778C66.4792 3.03296 66.7416 2.97779 67.0072 2.97548C67.2728 2.97317 67.5361 3.02377 67.7819 3.12434C68.0277 3.2249 68.251 3.3734 68.4388 3.56119C68.6266 3.74897 68.7751 3.97228 68.8756 4.21807C68.9762 4.46386 69.0268 4.72722 69.0245 4.99278C69.0222 5.25834 68.967 5.52078 68.8622 5.76479C68.7574 6.0088 68.605 6.22949 68.414 6.41398L59.828 15H57V12.172L65.586 3.58598Z" stroke="#9CA7AD" stroke-width="2" stroke-linecap="round" stroke-linejoin="round"/>
<path d="M91 7L90.133 19.142C90.0971 19.6466 89.8713 20.1188 89.5011 20.4636C89.1309 20.8083 88.6439 21 88.138 21H79.862C79.3561 21 78.8691 20.8083 78.4989 20.4636C78.1287 20.1188 77.9029 19.6466 77.867 19.142L77 7M82 11V17M86 11V17M87 7V4C87 3.73478 86.8946 3.48043 86.7071 3.29289C86.5196 3.10536 86.2652 3 86 3H82C81.7348 3 81.4804 3.10536 81.2929 3.29289C81.1054 3.48043 81 3.73478 81 4V7M76 7H92" stroke="#9CA7AD" stroke-width="2" stroke-linecap="round" stroke-linejoin="round"/>
</g>
<defs>
<clipPath id="clip0_296_535">
<rect width="96" height="24" fill="white"/>
</clipPath>
</defs>
</svg>
